{"title":"The Mortician 2011 DVD9rip English Klam","uid":7057302,"size":1344132634,"categoryP":"video","categoryS":"movies","magnet":"?xt=urn:btih:4f92bafb934252952d8bec3ad36f127b3af5d6b5&amp;dn=The+Mortician+2011+DVD9rip+English+Klam&amp;tr=udp%3A%2F%2Ftracker.openbittorrent.com%3A80&amp;tr=udp%3A%2F%2Fopen.demonii.com%3A1337&amp;tr=udp%3A%2F%2Ftracker.coppersurfer.tk%3A6969&amp;tr=udp%3A%2F%2Fexodus.desync.com%3A6969","seeders":0,"leechers":0,"uploader":"Klambake","files":-1,"time":1330180238,"description":"With: Method Man, Dash Mihok en E.J. Bonilla\n\nEen vervreemde en koude begrafenisondernemer voelt zich bedreigd door zijn nieuwe medewerker Noah, die de beruchte gangster Carver mee het mortuarium inbrengt. De interesse van de begrafenisondernemer wordt gewekt als hij een tatoeage ontdekt bij het vermoorde meisje Jenny, maar hij wordt geterroriseerd met enge dromen uit zijn kindertijd. Wanneer het bange jongetje Kane in het mortuarium terecht komt, beginnen de problemen.\n\nWhen a mortician confronts a boy hiding out in his morgue past emotions are triggered and he is determined to help the boy flee from danger killing anyone who stands in the way. \n\n------------------------ Dutch Friends ------------------------\n---------------------------------------------------------------\n- Bezoek ook eens mijn vrienden op: &lt;a href=&quot; http://www.Film-Test.nl&quot; rel=&quot;nofollow&quot; target=&quot;_NEW&quot;&gt; http://www.Film-Test.nl&lt;/a&gt; --\n----- voor mijn Nederlandse Sync. ondertitels ---- en meer ----\n------- http://www.Film-Test.nl ---- voor Films en meer -------\n---------------------------------------------------------------\n\nGeneral:\n\nComplete name                    : The Mortician\\\\\\\\\\\\\\\\\\\\\\\\\\\\\\\\The Mortician.avi\nFormat                           : AVI\nFormat/Info                      : Audio Video Interleave\nFile size                        : 1.25 GiB\nDuration                         : 1h 29mn\nOverall bit rate                 : 2 011 Kbps\n\nVideo:\n\nFormat                           : MPEG-4 Visual\nFormat profile                   : Simple@L3\nFormat settings, BVOP            : No\nFormat settings, QPel            : No\nFormat settings, GMC             : No warppoints\nFormat settings, Matrix          : Default (H.263)\nCodec ID                         : XVID\nCodec ID/Hint                    : XviD\nDuration                         : 1h 29mn\nBit rate                         : 1 552 Kbps\nWidth                            : 720 pixels\nHeight                           : 304 pixels\nDisplay aspect ratio             : 2.35:1\nFrame rate                       : 23.976 fps\nColor space                      : YUV\nChroma subsampling               : 4:2:0\nBit depth                        : 8 bits\nScan type                        : Progressive\nCompression mode                 : Lossy\nBits/(Pixel*Frame)               : 0.296\nStream size                      : 989 MiB (77%)\nWriting library                  : XviD 1.1.2 (UTC 2006-11-01)\n\nAudio:\n\nFormat                           : AC-3\nFormat/Info                      : Audio Coding 3\nMode extension                   : CM (complete main)\nCodec ID                         : 2000\nDuration                         : 1h 29mn\nBit rate mode                    : Constant\nBit rate                         : 448 Kbps\nChannel(s)                       : 6 channels\nChannel positions                : Front: L C R, Side: L R, LFE\nSampling rate                    : 48.0 KHz\nBit depth                        : 16 bits\nCompression mode                 : Lossy\nStream size                      : 286 MiB (22%)\nAlignment                        : Aligned on interleaves\nInterleave, duration             : 32 ms (0.77 video frame)\nInterleave, preload duration     : 1504 ms\n\n","torrent":{"xt":"urn:btih:4f92bafb934252952d8bec3ad36f127b3af5d6b5","amp;dn":"The+Mortician+2011+DVD9rip+English+Klam","amp;tr":["udp%3A%2F%2Ftracker.openbittorrent.com%3A80","udp%3A%2F%2Fopen.demonii.com%3A1337","udp%3A%2F%2Ftracker.coppersurfer.tk%3A6969","udp%3A%2F%2Fexodus.desync.com%3A6969"],"infoHash":"4f92bafb934252952d8bec3ad36f127b3af5d6b5","infoHashBuffer":{"type":"Buffer","data":[79,146,186,251,147,66,82,149,45,139,236,58,211,111,18,123,58,245,214,181]},"announce":[],"urlList":[]}}